<?xml version="1.0" encoding="UTF-8" standalone="no"?><svg xmlns="http://www.w3.org/2000/svg" xmlns:xlink="http://www.w3.org/1999/xlink" contentScriptType="application/ecmascript" contentStyleType="text/css" height="384px" preserveAspectRatio="none" style="width:315px;height:384px;" version="1.1" viewBox="0 0 315 384" width="315px" zoomAndPan="magnify"><defs><filter height="300%" id="fyry8mry5ad8h" width="300%" x="-1" y="-1"><feGaussianBlur result="blurOut" stdDeviation="2.0"/><feColorMatrix in="blurOut" result="blurOut2" type="matrix" values="0 0 0 0 0 0 0 0 0 0 0 0 0 0 0 0 0 0 .4 0"/><feOffset dx="4.0" dy="4.0" in="blurOut2" result="blurOut3"/><feBlend in="SourceGraphic" in2="blurOut3" mode="normal"/></filter></defs><g><ellipse cx="97" cy="20" fill="#000000" filter="url(#fyry8mry5ad8h)" rx="10" ry="10" style="stroke: none; stroke-width: 1.0;"/><rect fill="#CCFFE5" filter="url(#fyry8mry5ad8h)" height="35.0938" rx="12.5" ry="12.5" style="stroke: #A80036; stroke-width: 1.5;" width="72" x="61" y="50"/><text fill="#000000" font-family="sans-serif" font-size="12" lengthAdjust="spacingAndGlyphs" textLength="52" x="71" y="72.457">javac开始</text><path d="M190,152.0127 L190,178.3643 L268,178.3643 L268,162.0127 L258,152.0127 L190,152.0127 " fill="#FBFB77" filter="url(#fyry8mry5ad8h)" style="stroke: #A80036; stroke-width: 1.0;"/><path d="M258,152.0127 L258,162.0127 L268,162.0127 L258,152.0127 " fill="#FBFB77" style="stroke: #A80036; stroke-width: 1.0;"/><text fill="#000000" font-family="sans-serif" font-size="13" lengthAdjust="spacingAndGlyphs" textLength="57" x="196" y="170.5078">apt介入点</text><rect fill="#FEFECE" filter="url(#fyry8mry5ad8h)" height="35.0938" rx="12.5" ry="12.5" style="stroke: #A80036; stroke-width: 1.5;" width="97" x="48.5" y="166.5596"/><text fill="#000000" font-family="sans-serif" font-size="12" lengthAdjust="spacingAndGlyphs" textLength="77" x="58.5" y="189.0166">apt解析、编译</text><polygon fill="#FEFECE" filter="url(#fyry8mry5ad8h)" points="48,105.0938,146,105.0938,158,117.0938,146,129.0938,48,129.0938,36,117.0938,48,105.0938" style="stroke: #A80036; stroke-width: 1.5;"/><text fill="#000000" font-family="sans-serif" font-size="11" lengthAdjust="spacingAndGlyphs" textLength="20" x="101" y="140.5127">Yes</text><text fill="#000000" font-family="sans-serif" font-size="11" lengthAdjust="spacingAndGlyphs" textLength="98" x="48" y="121.5947">还有apt注解没处理?</text><text fill="#000000" font-family="sans-serif" font-size="11" lengthAdjust="spacingAndGlyphs" textLength="13" x="23" y="114.6768">No</text><rect fill="#CCFFE5" filter="url(#fyry8mry5ad8h)" height="35.0938" rx="12.5" ry="12.5" style="stroke: #A80036; stroke-width: 1.5;" width="72" x="61" y="243.6533"/><text fill="#000000" font-family="sans-serif" font-size="12" lengthAdjust="spacingAndGlyphs" textLength="52" x="71" y="266.1104">javac结束</text><path d="M201.5,303.1182 L201.5,312.2939 L181.5,316.2939 L201.5,320.2939 L201.5,329.4697 A0,0 0 0 0 201.5,329.4697 L303.5,329.4697 A0,0 0 0 0 303.5,329.4697 L303.5,313.1182 L293.5,303.1182 L201.5,303.1182 A0,0 0 0 0 201.5,303.1182 " fill="#FBFB77" filter="url(#fyry8mry5ad8h)" style="stroke: #A80036; stroke-width: 1.0;"/><path d="M293.5,303.1182 L293.5,313.1182 L303.5,313.1182 L293.5,303.1182 " fill="#FBFB77" style="stroke: #A80036; stroke-width: 1.0;"/><text fill="#000000" font-family="sans-serif" font-size="13" lengthAdjust="spacingAndGlyphs" textLength="81" x="207.5" y="321.6133">aspectj介入点</text><rect fill="#FEFECE" filter="url(#fyry8mry5ad8h)" height="35.0938" rx="12.5" ry="12.5" style="stroke: #A80036; stroke-width: 1.5;" width="169" x="12.5" y="298.7471"/><text fill="#000000" font-family="sans-serif" font-size="12" lengthAdjust="spacingAndGlyphs" textLength="149" x="22.5" y="321.2041">aspectj通过asm修改字节码</text><ellipse cx="97" cy="363.8408" fill="#FFFFFF" filter="url(#fyry8mry5ad8h)" rx="10" ry="10" style="stroke: #000000; stroke-width: 1.5;"/><line style="stroke: #000000; stroke-width: 2.5;" x1="90.8128" x2="103.1872" y1="357.6536" y2="370.028"/><line style="stroke: #000000; stroke-width: 2.5;" x1="103.1872" x2="90.8128" y1="357.6536" y2="370.028"/><line style="stroke: #A80036; stroke-width: 1.5;" x1="97" x2="97" y1="30" y2="50"/><polygon fill="#A80036" points="93,40,97,50,101,40,97,44" style="stroke: #A80036; stroke-width: 1.0;"/><line style="stroke: #A80036; stroke-width: 1.5;" x1="97" x2="97" y1="129.0938" y2="166.5596"/><polygon fill="#A80036" points="93,156.5596,97,166.5596,101,156.5596,97,160.5596" style="stroke: #A80036; stroke-width: 1.0;"/><line style="stroke: #A80036; stroke-width: 1.5;" x1="97" x2="97" y1="201.6533" y2="211.6533"/><line style="stroke: #A80036; stroke-width: 1.5;" x1="97" x2="170" y1="211.6533" y2="211.6533"/><polygon fill="#A80036" points="166,175.1885,170,165.1885,174,175.1885,170,171.1885" style="stroke: #A80036; stroke-width: 1.5;"/><line style="stroke: #A80036; stroke-width: 1.5;" x1="170" x2="170" y1="117.0938" y2="211.6533"/><line style="stroke: #A80036; stroke-width: 1.5;" x1="170" x2="158" y1="117.0938" y2="117.0938"/><polygon fill="#A80036" points="168,113.0938,158,117.0938,168,121.0938,164,117.0938" style="stroke: #A80036; stroke-width: 1.0;"/><line style="stroke: #A80036; stroke-width: 1.5;" x1="36" x2="24" y1="117.0938" y2="117.0938"/><polygon fill="#A80036" points="20,161.1885,24,171.1885,28,161.1885,24,165.1885" style="stroke: #A80036; stroke-width: 1.5;"/><line style="stroke: #A80036; stroke-width: 1.5;" x1="24" x2="24" y1="117.0938" y2="223.6533"/><line style="stroke: #A80036; stroke-width: 1.5;" x1="24" x2="97" y1="223.6533" y2="223.6533"/><line style="stroke: #A80036; stroke-width: 1.5;" x1="97" x2="97" y1="223.6533" y2="243.6533"/><polygon fill="#A80036" points="93,233.6533,97,243.6533,101,233.6533,97,237.6533" style="stroke: #A80036; stroke-width: 1.0;"/><line style="stroke: #A80036; stroke-width: 1.5;" x1="97" x2="97" y1="85.0938" y2="105.0938"/><polygon fill="#A80036" points="93,95.0938,97,105.0938,101,95.0938,97,99.0938" style="stroke: #A80036; stroke-width: 1.0;"/><line style="stroke: #A80036; stroke-width: 1.5;" x1="97" x2="97" y1="278.7471" y2="298.7471"/><polygon fill="#A80036" points="93,288.7471,97,298.7471,101,288.7471,97,292.7471" style="stroke: #A80036; stroke-width: 1.0;"/><line style="stroke: #A80036; stroke-width: 1.5;" x1="97" x2="97" y1="333.8408" y2="353.8408"/><polygon fill="#A80036" points="93,343.8408,97,353.8408,101,343.8408,97,347.8408" style="stroke: #A80036; stroke-width: 1.0;"/><!--MD5=[98337d1c566c711192210d1cc2243acb]
@startuml

start

#ccffe5:javac开始;
while (还有apt注解没处理?)is (Yes)
    note right
      apt介入点
    end note
    :apt解析、编译;
endwhile (No)
#ccffe5:javac结束;

:aspectj通过asm修改字节码;
    note right
      aspectj介入点
    end note
end

@enduml

PlantUML version 1.2020.06(Sun Apr 05 20:38:32 CST 2020)
(GPL source distribution)
Java Runtime: Java(TM) SE Runtime Environment
JVM: Java HotSpot(TM) 64-Bit Server VM
Java Version: 1.8.0_131-b11
Operating System: Windows 10
Default Encoding: UTF8
Language: zh
Country: CN
--></g></svg>